<svg width="403" height="988" viewBox="0 0 403 988" fill="none" xmlns="http://www.w3.org/2000/svg">
<g opacity="0.4">
<path d="M-146.578 974.388C-141.493 1035.72 -125.803 1121.44 -112.293 1165.71C-111.712 1165.71 -47.4999 1153.03 -34.2798 1150.59C-49.679 1140.47 -58.3955 1114.13 -65.0782 1098.15C-72.1967 1082.06 -75.6833 1042.19 -76.4097 1018.65C-77.8625 995.361 -93.407 935.733 -82.2208 898.542C-72.1967 861.473 -55.7806 814.893 -46.483 796.602C-37.4759 778.068 -31.3742 748.315 -27.1613 728.683C-23.2388 708.929 -13.0695 692.101 -7.69427 675.518C-2.46436 658.812 13.8066 631.62 23.3948 613.573C32.4019 595.527 46.3483 548.702 56.0818 525.046C64.7983 501.391 82.9578 444.689 88.7688 432.008C93.9987 419.448 102.425 408.962 118.986 393.963C135.112 379.087 159.082 343.847 167.218 331.165C175.063 318.118 211.672 275.683 230.848 250.32C249.879 224.713 265.569 214.836 284.6 192.888C304.067 170.939 314.527 165.939 320.919 158.013C327.166 150.087 338.062 132.406 343.728 122.651C349.103 112.896 402.709 33.5146 403 33.5146C400.385 30.263 397.77 26.9707 395.155 23.6377C395.155 23.6377 350.41 88.7525 343.146 97.654C335.592 106.677 330.653 122.407 316.27 144.966C301.162 166.793 230.558 227.03 225.618 235.078C219.226 241.907 159.809 312.874 151.964 325.556C143.102 337.75 114.047 372.502 88.1877 388.842C88.1877 388.354 93.5628 361.406 97.9211 343.603C102.134 325.556 123.054 305.436 142.521 280.317C162.278 255.076 181.164 245.443 198.597 218.495C216.321 191.424 224.747 179.718 240.872 157.526C255.4 134.967 345.471 36.807 347.359 36.807C344.26 34.6934 341.161 32.5392 338.062 30.3443C335.592 29.3688 219.517 160.33 208.476 183.376C194.094 205.203 161.407 244.223 144.264 262.636C126.686 280.561 91.3837 314.825 83.2483 337.018C73.8054 359.333 61.7475 439.934 54.9195 465.053C46.0577 490.416 13.3707 564.31 3.78256 598.331C-7.69424 631.498 -59.4124 710.88 -66.3857 745.266C-74.8117 778.555 -104.448 827.818 -108.225 818.917C-112.148 810.015 -112.583 770.142 -105.465 754.656C-98.3463 739.169 -80.1869 716.977 -66.9668 682.712C-53.7467 648.204 -35.8778 609.793 -32.1006 575.895C-28.7593 541.874 -13.6507 489.441 -5.80579 458.834C1.02216 427.862 39.0844 364.698 46.3482 343.115C52.3045 321.532 70.1734 257.393 89.3498 230.688C107.655 203.984 153.271 156.672 187.411 121.066C220.098 84.8505 289.249 15.7117 290.121 15.7117C285.859 12.7039 281.55 9.69611 277.191 6.68829C276.61 6.68829 226.054 64.6088 199.759 89.9719C171.576 114.603 95.7419 200.204 75.5486 227.762C53.612 254.832 38.5034 302.997 36.4696 313.85C34.1452 324.824 25.8644 348.846 14.8235 369.576C1.89392 390.305 -36.0231 489.928 -37.1853 514.316C-43.1416 538.947 -74.3758 671.128 -97.7652 704.051C-97.7652 703.32 -90.6466 662.105 -85.562 631.742C-83.5281 601.623 -60.1389 468.101 -48.081 427.862C-40.3814 389.086 -63.0443 307.509 -61.4463 277.025C-62.3179 247.76 -41.8341 159.355 -40.8172 128.87C-41.3983 98.9953 -48.081 39.7335 -47.9357 -6.23711C-48.2263 -52.0858 -25.5632 -88.3014 -22.6577 -95.1299C-20.3333 -102.202 24.7021 -169.146 25.4285 -169.146C22.6198 -171.097 19.7629 -173.048 16.8574 -174.999C14.8235 -175.365 -77.8624 -47.4521 -75.2475 -17.4554C-75.538 12.5413 -71.1797 68.6328 -68.7101 113.262C-67.8384 158.379 -95.1503 249.101 -97.3295 292.267C-100.526 324.337 -95.4409 370.917 -94.5692 414.449C-94.5692 415.018 -94.5208 415.668 -94.424 416.4C-93.9881 438.836 -94.7145 460.297 -98.2011 478.344C-104.884 500.537 -117.232 555.653 -126.53 603.818C-134.084 642.473 -139.459 676.737 -138.442 686.127C-141.203 697.833 -143.963 750.388 -145.561 803.797C-147.014 850.865 -147.74 898.542 -147.014 920.003C-148.757 932.685 -148.321 951.951 -146.578 974.388Z" fill="url(#paint0_linear_1159_59348)"/>
</g>
<defs>
<linearGradient id="paint0_linear_1159_59348" x1="4309.46" y1="1165.66" x2="4309.46" y2="-174.947" gradientUnits="userSpaceOnUse">
<stop stop-color="#1B322B" stop-opacity="0.33"/>
<stop offset="1" stop-color="#507858" stop-opacity="0"/>
</linearGradient>
</defs>
</svg>
