<svg width="416" height="988" viewBox="0 0 416 988" fill="none" xmlns="http://www.w3.org/2000/svg">
<g opacity="0.4">
<path d="M549.578 974.388C544.493 1035.72 528.803 1121.44 515.293 1165.71C514.712 1165.71 450.5 1153.03 437.28 1150.59C452.679 1140.47 461.395 1114.13 468.078 1098.15C475.197 1082.06 478.683 1042.19 479.41 1018.65C480.862 995.361 496.407 935.733 485.221 898.542C475.197 861.473 458.781 814.893 449.483 796.602C440.476 778.068 434.374 748.315 430.161 728.683C426.239 708.929 416.069 692.101 410.694 675.518C405.464 658.812 389.193 631.62 379.605 613.573C370.598 595.527 356.652 548.702 346.918 525.046C338.202 501.391 320.042 444.689 314.231 432.008C309.001 419.448 300.575 408.962 284.014 393.963C267.888 379.087 243.918 343.847 235.782 331.165C227.937 318.118 191.328 275.683 172.152 250.32C153.121 224.713 137.431 214.836 118.4 192.888C98.9327 170.939 88.4729 165.939 82.0808 158.013C75.8339 150.087 64.9382 132.406 59.2725 122.651C53.8973 112.896 0.290551 33.5146 0 33.5146C2.61496 30.263 5.22987 26.9707 7.84483 23.6377C7.84483 23.6377 52.5897 88.7525 59.8535 97.654C67.4078 106.677 72.3472 122.407 86.7295 144.966C101.838 166.793 172.442 227.03 177.382 235.078C183.774 241.907 243.191 312.874 251.036 325.556C259.898 337.75 288.953 372.502 314.812 388.842C314.812 388.354 309.437 361.406 305.079 343.603C300.866 325.556 279.946 305.436 260.479 280.317C240.722 255.076 221.836 245.443 204.403 218.495C186.679 191.424 178.253 179.718 162.128 157.526C147.6 134.967 57.5291 36.807 55.6406 36.807C58.7398 34.6934 61.8389 32.5392 64.9382 30.3443C67.4078 29.3688 183.483 160.33 194.524 183.376C208.906 205.203 241.593 244.223 258.736 262.636C276.314 280.561 311.616 314.825 319.752 337.018C329.195 359.333 341.253 439.934 348.08 465.053C356.942 490.416 389.629 564.31 399.217 598.331C410.694 631.498 462.412 710.88 469.386 745.266C477.812 778.555 507.448 827.818 511.225 818.917C515.148 810.015 515.583 770.142 508.465 754.656C501.346 739.169 483.187 716.977 469.967 682.712C456.747 648.204 438.878 609.793 435.101 575.895C431.759 541.874 416.651 489.441 408.806 458.834C401.978 427.862 363.916 364.698 356.652 343.115C350.695 321.532 332.827 257.393 313.65 230.688C295.345 203.984 249.729 156.672 215.589 121.066C182.902 84.8505 113.751 15.7117 112.879 15.7117C117.141 12.7039 121.45 9.69611 125.809 6.68829C126.39 6.68829 176.946 64.6088 203.241 89.9719C231.424 114.603 307.258 200.204 327.451 227.762C349.388 254.832 364.497 302.997 366.53 313.85C368.855 324.824 377.136 348.846 388.177 369.576C401.106 390.305 439.023 489.928 440.185 514.316C446.142 538.947 477.376 671.128 500.765 704.051C500.765 703.32 493.647 662.105 488.562 631.742C486.528 601.623 463.139 468.101 451.081 427.862C443.381 389.086 466.044 307.509 464.446 277.025C465.318 247.76 444.834 159.355 443.817 128.87C444.398 98.9953 451.081 39.7335 450.936 -6.23711C451.226 -52.0858 428.563 -88.3014 425.658 -95.1299C423.333 -102.202 378.298 -169.146 377.572 -169.146C380.38 -171.097 383.237 -173.048 386.143 -174.999C388.177 -175.365 480.862 -47.4521 478.247 -17.4554C478.538 12.5413 474.18 68.6328 471.71 113.262C470.838 158.379 498.15 249.101 500.329 292.267C503.526 324.337 498.441 370.917 497.569 414.449C497.569 415.018 497.521 415.668 497.424 416.4C496.988 438.836 497.714 460.297 501.201 478.344C507.884 500.537 520.232 555.653 529.53 603.818C537.084 642.473 542.459 676.737 541.442 686.127C544.203 697.833 546.963 750.388 548.561 803.797C550.014 850.865 550.74 898.542 550.014 920.003C551.757 932.685 551.321 951.951 549.578 974.388Z" fill="url(#paint0_linear_1159_59344)"/>
</g>
<defs>
<linearGradient id="paint0_linear_1159_59344" x1="-3906.46" y1="1165.66" x2="-3906.46" y2="-174.947" gradientUnits="userSpaceOnUse">
<stop stop-color="#1B322B" stop-opacity="0.33"/>
<stop offset="1" stop-color="#507858" stop-opacity="0"/>
</linearGradient>
</defs>
</svg>
